<?xml version="1.0" standalone="no"?>
<!DOCTYPE svg PUBLIC "-//W3C//DTD SVG 20010904//EN"
 "http://www.w3.org/TR/2001/REC-SVG-20010904/DTD/svg10.dtd">
<svg version="1.0" xmlns="http://www.w3.org/2000/svg"
 width="345.000000pt" height="345.000000pt" viewBox="0 0 345.000000 345.000000"
 preserveAspectRatio="xMidYMid meet">
<metadata>
Created by potrace 1.11, written by Peter Selinger 2001-2013
</metadata>
<g transform="translate(0.000000,345.000000) scale(0.100000,-0.100000)"
fill="#000000" stroke="none">
<path d="M1072 3068 c-6 -6 -12 -26 -12 -42 0 -17 -3 -47 -6 -67 -6 -36 -8
-37 -88 -63 -90 -29 -203 -90 -256 -140 -19 -18 -52 -43 -72 -55 -25 -15 -35
-27 -31 -37 3 -8 -2 -20 -10 -27 -9 -7 -17 -28 -19 -48 -1 -29 -5 -36 -17 -31
-9 3 -13 2 -9 -3 4 -4 -2 -25 -12 -46 l-20 -38 26 -20 c15 -12 29 -19 33 -17
3 2 24 12 46 22 22 10 84 44 137 76 111 66 134 73 113 31 -8 -15 -28 -42 -45
-60 -29 -31 -30 -33 -10 -33 12 0 19 -4 16 -9 -9 -14 23 -22 61 -15 33 6 35 5
28 -15 -4 -12 -1 -54 6 -94 7 -40 12 -76 10 -82 -2 -5 -6 -68 -11 -140 -5 -71
-16 -166 -26 -209 -13 -61 -15 -92 -8 -135 5 -32 6 -145 1 -266 -4 -115 -9
-275 -11 -355 l-4 -145 -39 -1 c-79 -1 -97 -21 -137 -151 -9 -29 -30 -33 -143
-30 -60 1 -96 -2 -104 -10 -15 -15 -31 -84 -35 -157 -2 -50 1 -61 18 -75 19
-16 19 -19 4 -33 -20 -21 -8 -31 70 -59 49 -18 88 -23 232 -27 l172 -4 0 -32
c0 -35 33 -96 52 -97 26 -2 125 2 144 6 10 2 33 4 50 4 29 1 32 5 44 48 22 80
12 77 260 97 158 14 251 27 405 60 39 8 129 19 200 25 104 8 162 19 287 55
235 68 332 132 403 268 21 40 51 90 65 110 45 62 46 124 5 268 -19 67 -46 136
-59 153 -13 18 -40 64 -59 103 -19 38 -55 95 -79 125 -24 29 -55 70 -68 89
-13 19 -59 72 -102 117 -43 46 -78 89 -78 97 0 8 15 27 34 41 19 14 44 41 57
60 13 18 27 31 31 29 4 -3 5 3 1 12 -4 12 -3 15 5 10 11 -6 16 5 13 26 -1 13
51 118 57 114 11 -6 6 83 -18 344 -18 192 -50 255 -167 332 -75 50 -148 78
-202 78 -20 0 -58 7 -86 16 -39 12 -91 15 -230 14 -207 -2 -295 -9 -529 -44
-160 -24 -170 -25 -182 -8 -8 9 -16 28 -20 42 -3 14 -9 32 -13 40 -10 19 -52
25 -69 8z m972 -398 c17 -5 51 -15 76 -22 42 -12 47 -17 82 -88 21 -41 38 -87
38 -101 0 -35 -49 -100 -104 -138 -60 -41 -165 -91 -193 -91 -12 0 -44 -5 -71
-10 l-49 -11 -38 -190 c-21 -104 -36 -191 -34 -193 9 -9 217 -100 268 -117 30
-11 68 -29 85 -42 17 -13 60 -41 96 -62 36 -22 79 -52 95 -67 17 -15 33 -28
38 -28 4 0 7 -6 7 -13 0 -7 16 -28 35 -47 19 -19 35 -39 35 -44 0 -6 13 -39
30 -74 16 -35 29 -68 27 -75 -1 -7 -13 -17 -27 -23 l-25 -12 25 2 c14 1 32 6
40 11 13 8 13 6 1 -8 -7 -9 -17 -14 -22 -12 -4 3 -24 -1 -43 -9 -19 -8 -37
-12 -39 -9 -3 2 -4 -3 -4 -13 1 -9 -5 -19 -13 -21 -13 -4 -13 -3 0 6 19 14 11
14 -28 0 -18 -6 -30 -14 -27 -19 3 -4 -3 -14 -12 -21 -14 -12 -16 -12 -8 0 5
8 -7 4 -25 -9 -18 -13 -30 -17 -25 -9 5 8 -1 5 -13 -5 -17 -14 -22 -16 -22 -5
0 9 -5 7 -12 -6 -18 -32 -41 -45 -66 -40 -21 5 -58 -7 -122 -40 -26 -13 -54
-10 -44 6 3 5 0 9 -5 9 -6 0 -11 -7 -11 -15 0 -8 5 -15 12 -15 6 0 8 -3 5 -6
-4 -4 -13 -2 -20 4 -8 7 -17 9 -20 5 -4 -3 -7 -2 -7 4 0 6 -11 10 -24 9 -19
-1 -22 -4 -14 -14 9 -11 13 -11 19 0 7 10 9 9 9 -4 0 -12 5 -16 18 -12 14 5
14 4 3 -4 -10 -7 -21 -7 -33 -1 -10 6 -23 7 -28 4 -6 -3 -10 2 -10 12 -1 17
-1 17 -10 1 -9 -14 -101 -42 -126 -37 -27 5 -64 -3 -78 -16 -17 -18 -40 -20
-30 -3 5 8 -8 9 -52 4 -32 -4 -81 -9 -109 -11 -66 -5 -123 -13 -133 -19 -4 -2
-16 2 -26 9 -16 12 -18 23 -11 92 3 43 10 96 15 118 5 22 11 82 15 134 4 52
11 106 17 120 10 26 13 364 4 379 -3 4 0 41 5 82 39 299 34 386 -31 535 -9 22
-20 72 -22 111 l-5 71 86 23 c47 12 102 24 121 26 19 3 80 13 135 24 204 39
364 51 429 30z m386 -1504 c0 -2 -9 -6 -20 -9 -11 -3 -18 -1 -14 4 5 9 34 13
34 5z m-20 -40 c0 -2 -7 -7 -16 -10 -8 -3 -12 -2 -9 4 6 10 25 14 25 6z m-209
-109 c-10 -9 -11 -8 -5 6 3 10 9 15 12 12 3 -3 0 -11 -7 -18z"/>
<path d="M1975 1020 c-3 -6 1 -7 9 -4 18 7 21 14 7 14 -6 0 -13 -4 -16 -10z"/>
</g>
</svg>
